<?xml version="1.0" encoding="utf-8"?>
<!-- Generator: Adobe Illustrator 24.0.2, SVG Export Plug-In . SVG Version: 6.00 Build 0)  -->
<svg version="1.1" xmlns="http://www.w3.org/2000/svg" xmlns:xlink="http://www.w3.org/1999/xlink" x="0px" y="0px"
	 viewBox="0 0 432 278.49" style="enable-background:new 0 0 432 278.49;" xml:space="preserve">
<style type="text/css">
	.st0{fill:none;stroke:#231F20;}
</style>
<g id="Layer_1">
	<g>
		
			<image style="overflow:visible;" width="3213" height="2220" xlink:href="21C64890.jpg"  transform="matrix(0.1255 0 0 0.1255 15.9349 -0.0627)">
		</image>
	</g>
</g>
<g id="Layer_2">
	<path class="st0" d="M66.81,253.29h62.42l76.74-214.94h-99.19L90.9,85.19c0,0,7.74,15.77-8.71,49.84s-39.48,75.48-30.97,105.68
		C51.23,240.71,67.68,238.77,66.81,253.29z"/>
	<path class="st0" d="M327.35,40.19l-31.48-0.32c0,0,2.77,18.58-13.42,15.42l-19.48,0.36L329.74,256h64.06
		c0,0-1.74-10.65,7.94-10.65l8.32,0.39c0,0,9.1-21.48-13.35-72l-20.52-42.77c0,0-6.97-12.77-3.68-41.03l-13.55-37.55l-10.65,0.39
		C348.32,52.77,333.1,56.26,327.35,40.19z"/>
	<circle class="st0" cx="320.84" cy="95.55" r="5.61"/>
	<circle class="st0" cx="142.62" cy="93.36" r="5.61"/>
	<circle class="st0" cx="285.02" cy="121.81" r="7.18"/>
	<circle class="st0" cx="367.44" cy="232.91" r="5.61"/>
	<circle class="st0" cx="92.65" cy="229.48" r="5.61"/>
	<line class="st0" x1="253" y1="256" x2="273.85" y2="256"/>
</g>
</svg>
